<?xml version="1.0" standalone="no"?><!DOCTYPE svg PUBLIC "-//W3C//DTD SVG 1.1//EN" "http://www.w3.org/Graphics/SVG/1.1/DTD/svg11.dtd"><svg t="1704991906288" class="icon" viewBox="0 0 1024 1024" version="1.1" xmlns="http://www.w3.org/2000/svg" p-id="12138" xmlns:xlink="http://www.w3.org/1999/xlink" width="200" height="200"><path d="M968.648 764a331.886 331.886 0 0 0-166.629-286.971 257.829 257.829 0 0 1-108.342 51.428 423.086 423.086 0 0 1 151.542 325.714v13.715a476.571 476.571 0 0 0 121.715-61.372A348.343 348.343 0 0 0 968.648 764z" fill="#FAAD14" p-id="12139"></path><path d="M636.077 47.429a228.686 228.686 0 0 0-40.8 4.114 289.371 289.371 0 0 1 26.742 445.714h14.058a225.6 225.6 0 0 0 0-451.2z" fill="#FFE58F" p-id="12140"></path><path d="M242.134 514.4a294.171 294.171 0 0 0 372.685 0 373.371 373.371 0 0 1 187.543 324 366.857 366.857 0 0 1-3.085 47.657 638.057 638.057 0 0 1-368.229 105.257A632.914 632.914 0 0 1 58.019 881.943a382.971 382.971 0 0 1-2.742-44.229A372.686 372.686 0 0 1 242.134 514.4z" fill="#FAAD14" p-id="12141"></path><path d="M498.59 587.429l-24.342 65.828 24.686 153.6-65.143 79.2-68.572-79.2L393.677 653.6l-29.143-66.171z" fill="#D46B08" p-id="12142"></path><path d="M428.305 539.429a253.714 253.714 0 1 1 255.086-253.715A253.714 253.714 0 0 1 428.305 539.43z" fill="#FFE58F" p-id="12143"></path></svg>