<?xml version="1.0" standalone="no"?><!DOCTYPE svg PUBLIC "-//W3C//DTD SVG 1.1//EN" "http://www.w3.org/Graphics/SVG/1.1/DTD/svg11.dtd"><svg t="1704991861388" class="icon" viewBox="0 0 1053 1024" version="1.1" xmlns="http://www.w3.org/2000/svg" p-id="9437" xmlns:xlink="http://www.w3.org/1999/xlink" width="205.6640625" height="200"><path d="M741.668571 246.257371c0 125.659429-101.961143 227.5328-227.7376 227.5328-125.7472 0-227.708343-101.873371-227.708342-227.5328 0-125.630171 101.961143-227.474286 227.708342-227.474285 125.776457 0 227.708343 101.814857 227.708343 227.474285" fill="#1E69F8" opacity=".4" p-id="9438"></path><path d="M515.598629 805.800229a247.427657 247.427657 0 0 1 78.848-181.189486h-299.593143a238.562743 238.562743 0 0 0-203.893029 114.600228 494.006857 494.006857 0 0 0-72.177371 257.667658h586.517943a247.866514 247.866514 0 0 1-89.7024-191.049143" fill="#1E69F8" opacity=".4" p-id="9439"></path><path d="M515.598629 805.800229a247.427657 247.427657 0 0 1 78.848-181.189486h-299.593143a238.562743 238.562743 0 0 0-203.893029 114.600228 494.006857 494.006857 0 0 0-72.177371 257.667658h586.517943a247.866514 247.866514 0 0 1-89.7024-191.049143" fill="#1E69F8" opacity=".4" p-id="9440"></path><path d="M627.991535 822.126253m34.135075-34.135075l0 0q34.135075-34.135075 68.27015 0l97.233243 97.233244q34.135075 34.135075 0 68.270149l0 0q-34.135075 34.135075-68.27015 0l-97.233243-97.233243q-34.135075-34.135075 0-68.27015Z" fill="#1E69F8" p-id="9441"></path><path d="M731.431156 925.565874m34.135075-34.135075l179.984939-179.98494q34.135075-34.135075 68.27015 0l0 0q34.135075 34.135075 0 68.27015l-179.98494 179.98494q-34.135075 34.135075-68.270149 0l0 0q-34.135075-34.135075 0-68.27015Z" fill="#1E69F8" p-id="9442"></path></svg>