<?xml version="1.0" standalone="no"?><!DOCTYPE svg PUBLIC "-//W3C//DTD SVG 1.1//EN" "http://www.w3.org/Graphics/SVG/1.1/DTD/svg11.dtd"><svg t="1705033940197" class="icon" viewBox="0 0 1024 1024" version="1.1" xmlns="http://www.w3.org/2000/svg" p-id="7241" xmlns:xlink="http://www.w3.org/1999/xlink" width="200" height="200"><path d="M264.24 379.04a31.872 31.872 0 0 1 47.052-11.364l97.204 70.164a31.88 31.88 0 0 1 9.736 40.332L363.76 584.96a31.872 31.872 0 0 1-47.052 11.364L219.504 526.16a31.88 31.88 0 0 1-9.736-40.332L264.24 379.04z" fill="#FE795A" p-id="7242"></path><path d="M759.76 379.04a31.872 31.872 0 0 0-47.052-11.364l-97.204 70.164a31.88 31.88 0 0 0-9.736 40.332l54.472 106.788a31.872 31.872 0 0 0 47.052 11.364l97.204-70.164a31.88 31.88 0 0 0 9.736-40.332L759.76 379.04z" fill="#F97D59" p-id="7243"></path><path d="M832.504 807a25.016 25.016 0 0 0-25-25h-650a25.016 25.016 0 0 0-25 25v50a25.016 25.016 0 0 0 25 25h650a25.016 25.016 0 0 0 25-25v-50z" fill="#FFA652" p-id="7244"></path><path d="M608.504 807a25.016 25.016 0 0 0-25-25h-426a25.016 25.016 0 0 0-25 25v50a25.016 25.016 0 0 0 25 25h426a25.016 25.016 0 0 0 25-25v-50z" fill="#FFB443" p-id="7245"></path><path d="M364.504 807a25.016 25.016 0 0 0-25-25h-182a25.016 25.016 0 0 0-25 25v50a25.016 25.016 0 0 0 25 25h182a25.016 25.016 0 0 0 25-25v-50z" fill="#FFBF50" p-id="7246"></path><path d="M135.344 546.768a29.184 29.184 0 0 1 44.668-15.18l86.008 60.648a29.164 29.164 0 0 1 11.048 32.5l-31.248 100.496a29.184 29.184 0 0 1-44.668 15.18l-86.008-60.648a29.164 29.164 0 0 1-11.048-32.5l31.248-100.496z" fill="#FF5179" p-id="7247"></path><path d="M885.82 546.768a29.184 29.184 0 0 0-44.668-15.18l-86.008 60.648a29.164 29.164 0 0 0-11.048 32.5l31.248 100.496a29.184 29.184 0 0 0 44.668 15.18l86.008-60.648a29.164 29.164 0 0 0 11.048-32.5l-31.248-100.496z" fill="#EC004A" p-id="7248"></path><path d="M465.268 219.576a54.552 54.552 0 0 1 93.464 0L712 474l194.648-121.256a22.36 22.36 0 0 1 33.316 25.144L824 782H200L84.036 377.888a22.36 22.36 0 0 1 33.316-25.144L312 474l153.268-254.424z" fill="#FF9B4C" p-id="7249"></path><path d="M174.712 693.872L84.036 377.888a22.36 22.36 0 0 1 33.316-25.144L312 474l153.268-254.424a54.552 54.552 0 0 1 93.464 0l150.664 250.1-4.892 76.324c0 86.1-69.9 156-156 156h-324a155.6 155.6 0 0 1-49.792-8.128z" fill="#FFD93B" p-id="7250"></path><path d="M709.396 469.676l-4.892 76.324c0 86.1-69.9 156-156 156h-44V193.688a54.552 54.552 0 0 1 54.228 25.888l150.664 250.1z" fill="#FFB73E" p-id="7251"></path><path d="M485.448 470.584a22.904 22.904 0 0 1 38.112 0l52.476 78.712a22.904 22.904 0 0 1 0 25.408l-52.476 78.712a22.904 22.904 0 0 1-38.112 0l-52.476-78.712a22.904 22.904 0 0 1 0-25.408l52.476-78.712z" fill="#FF2A5C" p-id="7252"></path><path d="M454.916 558a7.14 7.14 0 0 1-5.676-11.464l42.448-55.716c1.856-2.436 5.06-3.416 7.96-2.436a7.136 7.136 0 0 1 4.856 6.764v55.712a7.124 7.124 0 0 1-7.14 7.14h-42.448z" fill="#FFFFFF" fill-opacity=".3" p-id="7253"></path></svg>