<svg width="106" height="24" viewBox="0 0 106 24" fill="none" xmlns="http://www.w3.org/2000/svg">
<path d="M22.75 8.125C22.75 9.05208 22.6354 9.88021 22.4062 10.6094C22.1771 11.3385 21.8646 11.9844 21.4688 12.5469C21.0833 13.099 20.6354 13.5729 20.125 13.9688C19.6146 14.3646 19.0781 14.6927 18.5156 14.9531C17.9635 15.2031 17.401 15.3854 16.8281 15.5C16.2656 15.6146 15.7344 15.6719 15.2344 15.6719L23.7188 23H17.4375L8.96875 15.6719H6.04688V11.6094H15.2344C15.7448 11.5677 16.2083 11.4635 16.625 11.2969C17.0521 11.1198 17.4167 10.8854 17.7188 10.5938C18.0312 10.3021 18.2708 9.95312 18.4375 9.54688C18.6042 9.13021 18.6875 8.65625 18.6875 8.125V5.5625C18.6875 5.33333 18.6562 5.16146 18.5938 5.04688C18.5417 4.92188 18.4688 4.83333 18.375 4.78125C18.2917 4.71875 18.1979 4.68229 18.0938 4.67188C18 4.66146 17.9115 4.65625 17.8281 4.65625H4.42188V23H0.359375V2.64062C0.359375 2.35938 0.411458 2.09375 0.515625 1.84375C0.619792 1.59375 0.760417 1.375 0.9375 1.1875C1.125 1 1.34375 0.854167 1.59375 0.75C1.84375 0.645833 2.11458 0.59375 2.40625 0.59375H17.8281C18.7344 0.59375 19.5 0.760417 20.125 1.09375C20.75 1.41667 21.2552 1.82812 21.6406 2.32812C22.0365 2.81771 22.3177 3.34896 22.4844 3.92188C22.6615 4.49479 22.75 5.03125 22.75 5.53125V8.125Z" fill="#00b9c2"/>
<path d="M34.1219 23H30.0594V0.59375H34.1219V23ZM64.0563 23H59.9938V17.5H45.7125V23H41.65V11.7969C41.65 10.1615 41.9313 8.65625 42.4938 7.28125C43.0563 5.90625 43.8375 4.72396 44.8375 3.73438C45.8375 2.74479 47.0198 1.97396 48.3844 1.42188C49.749 0.869792 51.2385 0.59375 52.8531 0.59375H62.0094C62.2906 0.59375 62.5563 0.645833 62.8063 0.75C63.0563 0.854167 63.275 1 63.4625 1.1875C63.65 1.375 63.7958 1.59375 63.9 1.84375C64.0042 2.09375 64.0563 2.35938 64.0563 2.64062V23ZM45.7125 13.4375H59.9938V4.65625H52.8531C52.7281 4.65625 52.4625 4.67708 52.0563 4.71875C51.6604 4.75 51.1969 4.83854 50.6656 4.98438C50.1448 5.13021 49.5927 5.35417 49.0094 5.65625C48.426 5.95833 47.8896 6.375 47.4 6.90625C46.9104 7.4375 46.5042 8.10417 46.1813 8.90625C45.8688 9.69792 45.7125 10.6615 45.7125 11.7969V13.4375ZM94.3812 21.2656C94.3812 21.5573 94.324 21.8281 94.2094 22.0781C94.1052 22.3281 93.9594 22.5469 93.7719 22.7344C93.5948 22.9115 93.3812 23.0521 93.1312 23.1562C92.8812 23.2604 92.6156 23.3125 92.3344 23.3125C92.0844 23.3125 91.8292 23.2656 91.5687 23.1719C91.3187 23.0781 91.0948 22.9271 90.8969 22.7188L76.0531 7.21875V23H71.9906V2.32812C71.9906 1.91146 72.1052 1.53646 72.3344 1.20312C72.574 0.859375 72.876 0.604167 73.2406 0.4375C73.626 0.28125 74.0219 0.244792 74.4281 0.328125C74.8344 0.401042 75.1833 0.588542 75.475 0.890625L90.3187 16.375V0.59375H94.3812V21.2656ZM105.253 20.9531C105.253 21.2344 105.196 21.5 105.081 21.75C104.977 21.9896 104.831 22.2031 104.644 22.3906C104.467 22.5677 104.253 22.7083 104.003 22.8125C103.764 22.9167 103.508 22.9688 103.238 22.9688C102.956 22.9688 102.691 22.9167 102.441 22.8125C102.201 22.7083 101.988 22.5677 101.8 22.3906C101.623 22.2031 101.482 21.9896 101.378 21.75C101.274 21.5 101.222 21.2344 101.222 20.9531C101.222 20.6823 101.274 20.4271 101.378 20.1875C101.482 19.9375 101.623 19.724 101.8 19.5469C101.988 19.3594 102.201 19.2135 102.441 19.1094C102.691 18.9948 102.956 18.9375 103.238 18.9375C103.508 18.9375 103.764 18.9948 104.003 19.1094C104.253 19.2135 104.467 19.3594 104.644 19.5469C104.831 19.724 104.977 19.9375 105.081 20.1875C105.196 20.4271 105.253 20.6823 105.253 20.9531Z" fill="#293039"/>
</svg>
